<svg width="189" height="194" viewBox="0 0 189 194" fill="none" xmlns="http://www.w3.org/2000/svg">
<path fill-rule="evenodd" clip-rule="evenodd" d="M0.923665 0.980076L31.9664 45.1683C31.9211 45.1672 31.9682 45.1691 32.1028 45.1746C37.0331 45.3756 159.304 50.362 158.466 84.0112C158.268 91.9354 144.892 98.3171 143.567 98.93C108.057 86.7947 56.4198 85.5453 57.0187 86.3823L76.7197 114.426C76.6914 114.425 76.7199 114.426 76.8023 114.429H76.804H76.8062C79.9356 114.557 157.533 117.722 157.001 139.077C156.869 144.368 147.479 148.575 147.479 148.575L154.046 152.194C154.046 152.194 172.596 143.3 175.252 134.598C179.431 120.905 170.323 110.967 155.566 103.799C161.941 100.522 183.66 88.6287 187.224 76.9535C209.125 5.19141 -0.588303 -1.13253 0.923665 0.980076Z" fill="url(#paint0_linear_37_2)"/>
<defs>
<linearGradient id="paint0_linear_37_2" x1="94.8714" y1="0.655275" x2="94.8714" y2="152.194" gradientUnits="userSpaceOnUse">
<stop stop-color="#3B82F6"/>
<stop offset="1" stop-color="#60A5FA"/>
</linearGradient>
</defs>
</svg>
