<svg width="1081" height="193" viewBox="0 0 1081 193" fill="none" xmlns="http://www.w3.org/2000/svg">
<path fill-rule="evenodd" clip-rule="evenodd" d="M0.923543 0.471286L31.9663 44.6595C31.921 44.6584 31.9681 44.6603 32.1027 44.6658C37.033 44.8668 159.304 49.8532 158.466 83.5024C158.268 91.4266 144.892 97.8083 143.567 98.4212C108.057 86.2859 56.4197 85.0365 57.0186 85.8735L76.7196 113.917C76.6913 113.916 76.7198 113.917 76.8022 113.921L76.8039 113.921L76.8061 113.921C79.9355 114.049 157.533 117.213 157.001 138.568C156.869 143.859 147.479 148.067 147.479 148.067L154.046 151.685C154.046 151.685 172.596 142.791 175.252 134.089C179.431 120.397 170.323 110.458 155.566 103.29C161.941 100.014 183.66 88.1199 187.224 76.4447C209.125 4.68262 -0.588425 -1.64131 0.923543 0.471286Z" fill="url(#paint0_linear_10_64)"/>
<path d="M1080.91 43.7487L1033.85 165.154C1030.36 174.183 1025.65 181.005 1019.72 185.619C1013.85 190.298 1006.7 192.638 998.264 192.638C994.177 192.638 990.322 192.177 986.697 191.254C983.138 190.397 979.743 189.013 976.514 187.102L986.499 170.888C988.542 172.074 990.388 172.898 992.035 173.359C993.683 173.887 995.397 174.15 997.176 174.15C1000.27 174.15 1002.91 173.359 1005.09 171.778C1007.33 170.262 1009.34 167.461 1011.12 163.374L1018.53 146.172L978.788 43.7487H1003.9L1027.13 110.877C1027.86 112.921 1028.42 114.733 1028.81 116.315C1029.21 117.897 1029.67 119.841 1030.2 122.148H1030.69C1031.15 119.841 1031.61 117.93 1032.08 116.414C1032.6 114.898 1033.2 113.118 1033.85 111.075L1057.29 43.7487H1080.91Z" fill="white"/>
<path d="M968.308 64.4094C966.463 63.6844 964.551 63.1241 962.574 62.7287C960.663 62.2673 958.62 62.0366 956.445 62.0366C949.656 62.0366 944.152 65.0685 939.934 71.1321C935.716 77.1958 933.607 85.1049 933.607 94.8595V144.984H910.572V43.7468H933.607V62.0366H934.002C936.375 55.5775 939.868 50.6343 944.482 47.207C949.096 43.7138 954.434 41.9672 960.498 41.9672C963.068 41.9672 965.441 42.165 967.616 42.5604C969.791 42.9559 972.131 43.7138 974.636 44.8343L968.308 64.4094Z" fill="white"/>
<path d="M894.056 64.4094C892.211 63.6844 890.3 63.1241 888.322 62.7287C886.411 62.2673 884.368 62.0366 882.193 62.0366C875.404 62.0366 869.901 65.0685 865.682 71.1321C861.464 77.1958 859.355 85.1049 859.355 94.8595V144.984H836.32V43.7468H859.355V62.0366H859.751C862.123 55.5775 865.617 50.6343 870.23 47.207C874.844 43.7138 880.183 41.9672 886.246 41.9672C888.817 41.9672 891.189 42.165 893.364 42.5604C895.539 42.9559 897.879 43.7138 900.384 44.8343L894.056 64.4094Z" fill="white"/>
<path d="M820.255 144.986H797.219V131.243H796.824C793.529 136.187 789.08 140.108 783.477 143.008C777.941 145.908 772.108 147.358 765.978 147.358C754.115 147.358 745.151 143.865 739.087 136.879C733.024 129.826 729.992 119.545 729.992 106.033V43.7487H752.83V102.968C752.83 111.537 754.477 117.963 757.773 122.247C761.068 126.531 766.209 128.673 773.196 128.673C780.248 128.673 786.015 126.102 790.497 120.962C794.979 115.821 797.219 109.329 797.219 101.485V43.7487H820.255V144.986Z" fill="white"/>
<path d="M689.847 144.983V3.21219H712.882V144.983H689.847Z" fill="white"/>
<path d="M670.015 25.2589C668.302 24.1384 666.522 23.2816 664.677 22.6884C662.897 22.0293 660.92 21.6998 658.745 21.6998C654.395 21.6998 651.066 23.0509 648.76 25.7532C646.519 28.3896 645.398 32.3771 645.398 37.7157V54.1272H668.829V72.1204H645.398V144.999H622.462V72.1204H605.259V54.1272H622.462V37.518C622.462 26.9725 625.559 18.635 631.755 12.5054C638.016 6.30993 646.716 3.21219 657.855 3.21219C661.612 3.21219 665.27 3.67355 668.829 4.59629C672.454 5.45311 675.98 6.80425 679.407 8.64971L670.015 25.2589Z" fill="white"/>
<path d="M598.437 99.9997H528.54C528.738 109.754 531.374 117.103 536.449 122.046C541.59 126.924 547.884 129.362 555.332 129.362C560.605 129.362 565.285 128.143 569.371 125.704C573.457 123.2 576.918 119.509 579.752 114.632L597.448 124.221C592.835 131.603 586.936 137.304 579.752 141.325C572.633 145.345 564.23 147.356 554.541 147.356C539.646 147.356 527.716 142.874 518.753 133.91C509.789 124.946 505.307 112.061 505.307 95.2543C505.307 79.2383 509.888 66.2541 519.049 56.3018C528.276 46.3495 539.811 41.3734 553.652 41.3734C567.888 41.3734 578.895 45.6245 586.672 54.1268C594.515 62.6291 598.437 74.9542 598.437 91.102V99.9997ZM576.193 83.5883C576.193 75.6792 574.215 69.5496 570.261 65.1996C566.306 60.8496 560.902 58.6746 554.047 58.6746C546.863 58.6746 541.03 61.0803 536.548 65.8916C532.066 70.6371 529.364 76.536 528.441 83.5883H576.193Z" fill="white"/>
<path d="M491.529 144.986H468.494V131.243H468.099C464.803 136.187 460.354 140.108 454.752 143.008C449.216 145.908 443.383 147.358 437.253 147.358C425.389 147.358 416.426 143.865 410.362 136.879C404.298 129.826 401.266 119.545 401.266 106.033V43.7487H424.104V102.968C424.104 111.537 425.752 117.963 429.047 122.247C432.343 126.531 437.484 128.673 444.47 128.673C451.522 128.673 457.289 126.102 461.771 120.962C466.253 115.821 468.494 109.329 468.494 101.485V43.7487H491.529V144.986Z" fill="white"/>
<path d="M359.707 144.983V3.21219H382.743V144.983H359.707Z" fill="white"/>
<path d="M249.441 144.984V3.21286H295.512C309.748 3.21286 320.722 6.27765 328.433 12.4072C336.145 18.4709 340.001 27.138 340.001 38.4085C340.001 45.7244 337.891 52.1506 333.673 57.687C329.521 63.2233 324.215 67.112 317.756 69.3529V69.7484C326.324 71.3961 333.08 75.2848 338.023 81.4143C342.966 87.5439 345.438 94.9257 345.438 103.56C345.438 116.083 340.989 126.134 332.091 133.713C323.26 141.227 311.462 144.984 296.698 144.984H249.441ZM272.971 22.3925V62.729H289.481C297.39 62.729 303.652 60.9165 308.265 57.2915C312.945 53.6006 315.285 48.229 315.285 41.1767C315.285 35.0471 313.34 30.4005 309.452 27.2368C305.629 24.0073 300.059 22.3925 292.744 22.3925H272.971ZM272.971 81.7109V125.804H293.337C302.169 125.804 308.924 123.794 313.604 119.774C318.349 115.753 320.722 110.25 320.722 103.263C320.722 96.2769 318.217 90.9382 313.208 87.2473C308.199 83.5564 300.916 81.7109 291.359 81.7109H272.971Z" fill="white"/>
<defs>
<linearGradient id="paint0_linear_10_64" x1="94.8713" y1="0.146484" x2="94.8713" y2="151.685" gradientUnits="userSpaceOnUse">
<stop stop-color="#3B82F6"/>
<stop offset="1" stop-color="#60A5FA"/>
</linearGradient>
</defs>
</svg>
