<svg width="832" height="191" viewBox="0 0 832 191" fill="none" xmlns="http://www.w3.org/2000/svg">
<g clip-path="url(#clip0_37_14)">
<path d="M831.91 41.2568L784.85 162.662C781.36 171.692 776.65 178.513 770.72 183.127C764.85 187.807 757.7 190.147 749.264 190.147C745.177 190.147 741.322 189.685 737.697 188.762C734.138 187.906 730.743 186.521 727.514 184.61L737.499 168.396C739.542 169.583 741.388 170.407 743.035 170.868C744.683 171.395 746.397 171.659 748.176 171.659C751.27 171.659 753.91 170.868 756.09 169.286C758.33 167.77 760.34 164.969 762.12 160.883L769.53 143.68L729.788 41.2568H754.9L778.13 108.386C778.86 110.429 779.42 112.242 779.81 113.823C780.21 115.405 780.67 117.35 781.2 119.656H781.69C782.15 117.35 782.61 115.438 783.08 113.922C783.6 112.406 784.2 110.627 784.85 108.584L808.29 41.2568H831.91Z" fill="black"/>
<path d="M719.308 61.9178C717.463 61.1928 715.551 60.6326 713.574 60.2371C711.663 59.7757 709.62 59.5451 707.445 59.5451C700.656 59.5451 695.152 62.5769 690.934 68.6405C686.716 74.7042 684.607 82.6133 684.607 92.3679V142.492H661.572V41.2552H684.607V59.5451H685.002C687.375 53.0859 690.868 48.1427 695.482 44.7154C700.096 41.2222 705.434 39.4756 711.498 39.4756C714.068 39.4756 716.441 39.6734 718.616 40.0688C720.791 40.4643 723.131 41.2222 725.636 42.3427L719.308 61.9178Z" fill="black"/>
<path d="M645.056 61.9178C643.211 61.1928 641.3 60.6326 639.322 60.2371C637.411 59.7757 635.368 59.5451 633.193 59.5451C626.404 59.5451 620.901 62.5769 616.682 68.6405C612.464 74.7042 610.355 82.6133 610.355 92.3679V142.492H587.32V41.2552H610.355V59.5451H610.751C613.123 53.0859 616.617 48.1427 621.23 44.7154C625.844 41.2222 631.183 39.4756 637.246 39.4756C639.817 39.4756 642.189 39.6734 644.364 40.0688C646.539 40.4643 648.879 41.2222 651.384 42.3427L645.056 61.9178Z" fill="black"/>
<path d="M571.255 142.494H548.219V128.752H547.824C544.529 133.695 540.08 137.617 534.477 140.517C528.941 143.417 523.108 144.867 516.978 144.867C505.115 144.867 496.151 141.374 490.087 134.387C484.024 127.335 480.992 117.053 480.992 103.542V41.2568H503.83V100.477C503.83 109.045 505.477 115.471 508.773 119.755C512.068 124.039 517.209 126.181 524.196 126.181C531.248 126.181 537.015 123.611 541.497 118.47C545.979 113.329 548.219 106.837 548.219 98.9936V41.2568H571.255V142.494Z" fill="black"/>
<path d="M440.847 142.492V0.720703H463.882V142.492H440.847Z" fill="black"/>
<path d="M421.015 22.7673C419.302 21.6469 417.522 20.7901 415.677 20.1969C413.897 19.5378 411.92 19.2082 409.745 19.2082C405.395 19.2082 402.066 20.5594 399.76 23.2617C397.519 25.898 396.398 29.8856 396.398 35.2242V51.6356H419.829V69.6289H396.398V142.508H373.462V69.6289H356.259V51.6356H373.462V35.0265C373.462 24.481 376.559 16.1434 382.755 10.0139C389.016 3.81844 397.716 0.720703 408.855 0.720703C412.612 0.720703 416.27 1.18206 419.829 2.10479C423.454 2.96162 426.98 4.31276 430.407 6.15822L421.015 22.7673Z" fill="black"/>
<path d="M349.437 97.5079H279.54C279.738 107.263 282.374 114.612 287.449 119.555C292.59 124.432 298.884 126.871 306.332 126.871C311.605 126.871 316.285 125.652 320.371 123.213C324.457 120.708 327.918 117.017 330.752 112.14L348.448 121.73C343.835 129.112 337.936 134.813 330.752 138.833C323.633 142.854 315.23 144.864 305.541 144.864C290.646 144.864 278.716 140.382 269.753 131.419C260.789 122.455 256.307 109.57 256.307 92.7627C256.307 76.7467 260.888 63.7626 270.049 53.8103C279.276 43.8579 290.811 38.8818 304.652 38.8818C318.888 38.8818 329.895 43.1329 337.672 51.6352C345.515 60.1376 349.437 72.4626 349.437 88.6104V97.5079ZM327.193 81.0967C327.193 73.1876 325.215 67.058 321.261 62.708C317.306 58.358 311.902 56.183 305.047 56.183C297.863 56.183 292.03 58.5887 287.548 63.4001C283.066 68.1455 280.364 74.0444 279.441 81.0967H327.193Z" fill="black"/>
<path d="M242.529 142.494H219.494V128.752H219.099C215.803 133.695 211.354 137.617 205.752 140.517C200.216 143.417 194.383 144.867 188.253 144.867C176.389 144.867 167.426 141.374 161.362 134.387C155.298 127.335 152.266 117.053 152.266 103.542V41.2568H175.104V100.477C175.104 109.045 176.752 115.471 180.047 119.755C183.343 124.039 188.484 126.181 195.47 126.181C202.522 126.181 208.289 123.611 212.771 118.47C217.253 113.329 219.494 106.837 219.494 98.9936V41.2568H242.529V142.494Z" fill="black"/>
<path d="M110.707 142.492V0.720703H133.743V142.492H110.707Z" fill="black"/>
<path d="M0.440918 142.492V0.720703H46.5119C60.7479 0.720703 71.7219 3.78549 79.4329 9.91503C87.1449 15.9787 91.0009 24.6458 91.0009 35.9163C91.0009 43.2322 88.8909 49.6584 84.6729 55.1948C80.5209 60.7312 75.2149 64.6198 68.7559 66.8607V67.2562C77.3239 68.9039 84.0799 72.7926 89.0229 78.9221C93.9659 85.0517 96.4379 92.4336 96.4379 101.068C96.4379 113.591 91.9889 123.642 83.0909 131.222C74.2599 138.735 62.4619 142.492 47.6979 142.492H0.440918ZM23.9709 19.9003V60.2368H40.4809C48.3899 60.2368 54.6519 58.4243 59.2649 54.7993C63.9449 51.1084 66.2849 45.7368 66.2849 38.6845C66.2849 32.5549 64.3399 27.9083 60.4519 24.7446C56.6289 21.5151 51.0589 19.9003 43.7439 19.9003H23.9709ZM23.9709 79.2187V123.312H44.3369C53.1689 123.312 59.9239 121.302 64.6039 117.282C69.3489 113.261 71.7219 107.758 71.7219 100.771C71.7219 93.7847 69.2169 88.446 64.2079 84.7551C59.1989 81.0642 51.9159 79.2187 42.3589 79.2187H23.9709Z" fill="black"/>
</g>
<defs>
<clipPath id="clip0_37_14">
<rect width="832" height="191" fill="white"/>
</clipPath>
</defs>
</svg>
