<svg width="1081" height="194" viewBox="0 0 1081 194" fill="none" xmlns="http://www.w3.org/2000/svg">
<path fill-rule="evenodd" clip-rule="evenodd" d="M0.923543 0.979785L31.9663 45.168C31.921 45.1669 31.9681 45.1688 32.1027 45.1743C37.033 45.3753 159.304 50.3617 158.466 84.0109C158.268 91.9351 144.892 98.3168 143.567 98.9297C108.057 86.7944 56.4197 85.545 57.0186 86.382L76.7196 114.426C76.6913 114.425 76.7198 114.426 76.8022 114.429L76.8039 114.429L76.8061 114.429C79.9355 114.557 157.533 117.722 157.001 139.077C156.869 144.368 147.479 148.575 147.479 148.575L154.046 152.194C154.046 152.194 172.596 143.3 175.252 134.598C179.431 120.905 170.323 110.967 155.566 103.799C161.941 100.522 183.66 88.6284 187.224 76.9532C209.125 5.19112 -0.588425 -1.13282 0.923543 0.979785Z" fill="url(#paint0_linear_10_51)"/>
<path d="M1080.91 44.2572L1033.85 165.662C1030.36 174.692 1025.65 181.513 1019.72 186.127C1013.85 190.807 1006.7 193.147 998.264 193.147C994.177 193.147 990.322 192.685 986.697 191.762C983.138 190.906 979.743 189.521 976.514 187.61L986.499 171.396C988.542 172.583 990.388 173.407 992.035 173.868C993.683 174.395 995.397 174.659 997.176 174.659C1000.27 174.659 1002.91 173.868 1005.09 172.286C1007.33 170.77 1009.34 167.969 1011.12 163.883L1018.53 146.68L978.788 44.2572H1003.9L1027.13 111.386C1027.86 113.429 1028.42 115.242 1028.81 116.823C1029.21 118.405 1029.67 120.35 1030.2 122.656H1030.69C1031.15 120.35 1031.61 118.438 1032.08 116.922C1032.6 115.406 1033.2 113.627 1033.85 111.584L1057.29 44.2572H1080.91Z" fill="black"/>
<path d="M968.308 64.9178C966.463 64.1928 964.551 63.6326 962.574 63.2371C960.663 62.7757 958.62 62.5451 956.445 62.5451C949.656 62.5451 944.152 65.5769 939.934 71.6405C935.716 77.7042 933.607 85.6133 933.607 95.3679V145.492H910.572V44.2552H933.607V62.5451H934.002C936.375 56.0859 939.868 51.1427 944.482 47.7154C949.096 44.2222 954.434 42.4756 960.498 42.4756C963.068 42.4756 965.441 42.6734 967.616 43.0688C969.791 43.4643 972.131 44.2222 974.636 45.3427L968.308 64.9178Z" fill="black"/>
<path d="M894.056 64.9178C892.211 64.1928 890.3 63.6326 888.322 63.2371C886.411 62.7757 884.368 62.5451 882.193 62.5451C875.404 62.5451 869.901 65.5769 865.682 71.6405C861.464 77.7042 859.355 85.6133 859.355 95.3679V145.492H836.32V44.2552H859.355V62.5451H859.751C862.123 56.0859 865.617 51.1427 870.23 47.7154C874.844 44.2222 880.183 42.4756 886.246 42.4756C888.817 42.4756 891.189 42.6734 893.364 43.0688C895.539 43.4643 897.879 44.2222 900.384 45.3427L894.056 64.9178Z" fill="black"/>
<path d="M820.255 145.494H797.219V131.752H796.824C793.529 136.695 789.08 140.617 783.477 143.517C777.941 146.417 772.108 147.867 765.978 147.867C754.115 147.867 745.151 144.374 739.087 137.387C733.024 130.335 729.992 120.053 729.992 106.542V44.2572H752.83V103.477C752.83 112.045 754.477 118.471 757.773 122.755C761.068 127.039 766.209 129.181 773.196 129.181C780.248 129.181 786.015 126.611 790.497 121.47C794.979 116.329 797.219 109.837 797.219 101.994V44.2572H820.255V145.494Z" fill="black"/>
<path d="M689.847 145.492V3.72066H712.882V145.492H689.847Z" fill="black"/>
<path d="M670.015 25.7673C668.302 24.6469 666.522 23.7901 664.677 23.1969C662.897 22.5378 660.92 22.2082 658.745 22.2082C654.395 22.2082 651.066 23.5594 648.76 26.2617C646.519 28.898 645.398 32.8856 645.398 38.2242V54.6356H668.829V72.6289H645.398V145.508H622.462V72.6289H605.259V54.6356H622.462V38.0265C622.462 27.481 625.559 19.1434 631.755 13.0139C638.016 6.8184 646.716 3.72066 657.855 3.72066C661.612 3.72066 665.27 4.18202 668.829 5.10475C672.454 5.96158 675.98 7.31272 679.407 9.15818L670.015 25.7673Z" fill="black"/>
<path d="M598.437 100.508H528.54C528.738 110.263 531.374 117.612 536.449 122.555C541.59 127.432 547.884 129.871 555.332 129.871C560.605 129.871 565.285 128.652 569.371 126.213C573.457 123.708 576.918 120.017 579.752 115.14L597.448 124.73C592.835 132.112 586.936 137.813 579.752 141.833C572.633 145.854 564.23 147.864 554.541 147.864C539.646 147.864 527.716 143.382 518.753 134.419C509.789 125.455 505.307 112.57 505.307 95.7628C505.307 79.7468 509.888 66.7627 519.049 56.8104C528.276 46.858 539.811 41.8819 553.652 41.8819C567.888 41.8819 578.895 46.133 586.672 54.6353C594.515 63.1377 598.437 75.4627 598.437 91.6105V100.508ZM576.193 84.0968C576.193 76.1877 574.215 70.0581 570.261 65.7081C566.306 61.3581 560.902 59.1831 554.047 59.1831C546.863 59.1831 541.03 61.5888 536.548 66.4002C532.066 71.1456 529.364 77.0445 528.441 84.0968H576.193Z" fill="black"/>
<path d="M491.529 145.494H468.494V131.752H468.099C464.803 136.695 460.354 140.617 454.752 143.517C449.216 146.417 443.383 147.867 437.253 147.867C425.389 147.867 416.426 144.374 410.362 137.387C404.298 130.335 401.266 120.053 401.266 106.542V44.2572H424.104V103.477C424.104 112.045 425.752 118.471 429.047 122.755C432.343 127.039 437.484 129.181 444.47 129.181C451.522 129.181 457.289 126.611 461.771 121.47C466.253 116.329 468.494 109.837 468.494 101.994V44.2572H491.529V145.494Z" fill="black"/>
<path d="M359.707 145.492V3.72066H382.743V145.492H359.707Z" fill="black"/>
<path d="M249.441 145.492V3.72107H295.512C309.748 3.72107 320.722 6.78586 328.433 12.9154C336.145 18.9791 340.001 27.6462 340.001 38.9167C340.001 46.2326 337.891 52.6588 333.673 58.1952C329.521 63.7316 324.215 67.6202 317.756 69.8611V70.2566C326.324 71.9043 333.08 75.793 338.023 81.9225C342.966 88.0521 345.438 95.434 345.438 104.068C345.438 116.591 340.989 126.642 332.091 134.222C323.26 141.735 311.462 145.492 296.698 145.492H249.441ZM272.971 22.9007V63.2372H289.481C297.39 63.2372 303.652 61.4247 308.265 57.7997C312.945 54.1088 315.285 48.7372 315.285 41.6849C315.285 35.5553 313.34 30.9087 309.452 27.745C305.629 24.5155 300.059 22.9007 292.744 22.9007H272.971ZM272.971 82.2191V126.312H293.337C302.169 126.312 308.924 124.302 313.604 120.282C318.349 116.261 320.722 110.758 320.722 103.771C320.722 96.7851 318.217 91.4464 313.208 87.7555C308.199 84.0646 300.916 82.2191 291.359 82.2191H272.971Z" fill="black"/>
<defs>
<linearGradient id="paint0_linear_10_51" x1="94.8713" y1="0.654984" x2="94.8713" y2="152.194" gradientUnits="userSpaceOnUse">
<stop stop-color="#3B82F6"/>
<stop offset="1" stop-color="#60A5FA"/>
</linearGradient>
</defs>
</svg>
